<svg width="19" height="20" viewBox="0 0 19 20" fill="none" xmlns="http://www.w3.org/2000/svg">
  <path d="M4.8 18.9L3.85 17.95L2.8 19C2.48333 19.3167 2.09167 19.4833 1.625 19.5C1.175 19.5 0.8 19.3333 0.5 19C0.183333 18.6833 0.025 18.3 0.025 17.85C0.025 17.4 0.183333 17.0167 0.5 16.7L1.55 15.65L0.6 14.65L14.45 0.799998C14.65 0.599998 14.8917 0.499999 15.175 0.499999C15.4583 0.499999 15.7 0.599998 15.9 0.799998L18.7 3.6C18.9 3.8 19 4.04167 19 4.325C19 4.60833 18.9 4.85 18.7 5.05L4.8 18.9ZM9.1 9L3.4 14.65L4.85 16.1L10.5 10.4L9.1 9Z" fill="#C4C7C5"/>
</svg>
