<svg width="22" height="20" viewBox="0 0 22 20" fill="none" xmlns="http://www.w3.org/2000/svg">
  <path d="M5 16L11.1 16L14.475 12.625L13.25 11L10.25 15L8 12L5 16ZM4 20C3.45 20 2.975 19.8083 2.575 19.425C2.19167 19.025 2 18.55 2 18L2 10C2.3 10 2.61667 10 2.95 10C3.28333 10 3.63333 10 4 10L4 18L11 18L11 20L4 20ZM18 9L18 4L10 4C10 3.63333 10 3.28333 10 2.95C10 2.61667 10 2.3 10 2L18 2C18.55 2 19.0167 2.2 19.4 2.6C19.8 2.98333 20 3.45 20 4L20 9C19.6667 9 19.325 9 18.975 9C18.6417 9 18.3167 9 18 9ZM13 20L13 16.925L18.525 11.425C18.675 11.275 18.8417 11.1667 19.025 11.1C19.2083 11.0333 19.3917 11 19.575 11C19.775 11 19.9667 11.0417 20.15 11.125C20.3333 11.1917 20.5 11.3 20.65 11.45L21.575 12.375C21.7083 12.525 21.8083 12.6917 21.875 12.875C21.9583 13.0583 22 13.2417 22 13.425C22 13.6083 21.9667 13.8 21.9 14C21.8333 14.1833 21.725 14.35 21.575 14.5L16.075 20H13ZM20.5 13.425L19.575 12.5L20.5 13.425ZM14.5 18.5H15.45L18.475 15.45L17.55 14.525L14.5 17.55L14.5 18.5ZM18.025 14.975L17.55 14.525L18.475 15.45L18.025 14.975ZM4.5 9C4.5 7.75 4.05833 6.69167 3.175 5.825C2.30833 4.94167 1.25 4.5 4.99053e-08 4.5C1.25 4.5 2.30833 4.06667 3.175 3.2C4.05833 2.31667 4.5 1.25 4.5 -9.53674e-07C4.5 1.25 4.93333 2.31667 5.8 3.2C6.68333 4.06667 7.75 4.5 9 4.5C7.75 4.5 6.68333 4.94167 5.8 5.825C4.93333 6.69167 4.5 7.75 4.5 9Z" fill="#E3E3E3"/>
</svg>
