<svg width="24" height="24" viewBox="0 0 24 24" fill="none" xmlns="http://www.w3.org/2000/svg">
  <path d="M8 17.75C6.21667 17.3 4.76667 16.3583 3.65 14.925C2.55 13.475 2 11.8333 2 10C2 7.76667 2.775 5.875 4.325 4.325C5.875 2.775 7.76667 2 10 2C11.8333 2 13.4667 2.55833 14.9 3.675C16.35 4.775 17.3 6.21667 17.75 8H15.65C15.2167 6.8 14.4833 5.83333 13.45 5.1C12.4333 4.36667 11.2833 4 10 4C8.33333 4 6.91667 4.58333 5.75 5.75C4.58333 6.91667 4 8.33333 4 10C4 11.2833 4.36667 12.4417 5.1 13.475C5.83333 14.4917 6.8 15.2167 8 15.65L8 17.75ZM12 22C11.45 22 10.975 21.8083 10.575 21.425C10.1917 21.025 10 20.55 10 20L10 12C10 11.45 10.1917 10.9833 10.575 10.6C10.975 10.2 11.45 10 12 10L20 10C20.55 10 21.0167 10.2 21.4 10.6C21.8 10.9833 22 11.45 22 12L22 20C22 20.55 21.8 21.025 21.4 21.425C21.0167 21.8083 20.55 22 20 22H12ZM12 20H20L20 12L12 12L12 20ZM12.5 19H19.5L17.2 16L15.5 18.25L14.3 16.6L12.5 19Z" fill="#E3E3E3"/>
</svg>
