<svg width="22" height="23" viewBox="0 0 22 23" fill="none" xmlns="http://www.w3.org/2000/svg">
  <path d="M17.5 8.5L16.25 5.75L13.5 4.5L16.25 3.25L17.5 0.499999L18.75 3.25L21.5 4.5L18.75 5.75L17.5 8.5ZM17.5 22.5L16.25 19.75L13.5 18.5L16.25 17.25L17.5 14.5L18.75 17.25L21.5 18.5L18.75 19.75L17.5 22.5ZM8.50002 19.5L6.00002 14L0.500015 11.5L6.00002 9L8.50002 3.5L11 9L16.5 11.5L11 14L8.50002 19.5ZM8.50002 14.65L9.50002 12.5L11.65 11.5L9.50002 10.5L8.50002 8.35L7.50002 10.5L5.35002 11.5L7.50002 12.5L8.50002 14.65Z" fill="#C4C7C5"/>
</svg>
