<svg width="21" height="20" viewBox="0 0 21 20" fill="none" xmlns="http://www.w3.org/2000/svg">
  <path d="M14.5 18V9H2.5V18H14.5ZM16.5 13V11H18.5V2H6.5V7H4.5V2C4.5 1.45 4.69167 0.983332 5.075 0.599999C5.475 0.199999 5.95 -4.76837e-07 6.5 -4.76837e-07H18.5C19.05 -4.76837e-07 19.5167 0.199999 19.9 0.599999C20.3 0.983332 20.5 1.45 20.5 2V11C20.5 11.55 20.3 12.025 19.9 12.425C19.5167 12.8083 19.05 13 18.5 13H16.5ZM2.5 20C1.95 20 1.475 19.8083 1.075 19.425C0.691667 19.025 0.5 18.55 0.5 18V9C0.5 8.45 0.691667 7.98333 1.075 7.6C1.475 7.2 1.95 7 2.5 7H14.5C15.05 7 15.5167 7.2 15.9 7.6C16.3 7.98333 16.5 8.45 16.5 9V18C16.5 18.55 16.3 19.025 15.9 19.425C15.5167 19.8083 15.05 20 14.5 20H2.5Z" fill="inherit"/>
</svg>
