<svg width="24" height="24" viewBox="0 0 24 24" fill="none" xmlns="http://www.w3.org/2000/svg">
<path d="M9 22L9 4L11 4L11 22H9ZM13 18L13 8L15 8L15 18H13ZM5 16L5 10L7 10L7 16L5 16ZM17 15L17 11H19L19 15H17ZM1 14L1 12H3L3 14H1ZM18.5 10C18.4833 10 18.4167 9.95 18.3 9.85C18.0333 8.83333 17.525 7.95833 16.775 7.225C16.0417 6.475 15.1667 5.96667 14.15 5.7C14.1167 5.68333 14.0667 5.61667 14 5.5C14 5.46667 14.05 5.4 14.15 5.3C15.1667 5.03333 16.0417 4.53333 16.775 3.8C17.525 3.05 18.0333 2.16667 18.3 1.15C18.3167 1.11667 18.3833 1.06667 18.5 0.999999C18.5333 0.999999 18.6 1.05 18.7 1.15C18.9833 2.16667 19.4917 3.05 20.225 3.8C20.9583 4.53333 21.8333 5.03333 22.85 5.3C22.8833 5.3 22.9333 5.36667 23 5.5C23 5.51667 22.95 5.58333 22.85 5.7C21.8333 5.96667 20.95 6.475 20.2 7.225C19.4667 7.95833 18.9667 8.83333 18.7 9.85C18.7 9.88333 18.6333 9.93333 18.5 10Z" fill="#E3E3E3"/>
</svg>
