<svg width="22" height="22" viewBox="0 0 22 22" fill="none" xmlns="http://www.w3.org/2000/svg">
  <path d="M3.4 16C2.36667 15.3833 1.54167 14.55 0.925 13.5C0.308333 12.45 2.98023e-08 11.2833 2.98023e-08 10C2.98023e-08 8.05 0.675 6.4 2.025 5.05C3.39167 3.68333 5.05 3 7 3C8.95 3 10.6 3.68333 11.95 5.05C13.3167 6.4 14 8.05 14 10C14 11.2833 13.6917 12.45 13.075 13.5C12.4583 14.55 11.6333 15.3833 10.6 16H3.4ZM4 14H10C10.6333 13.5167 11.125 12.9333 11.475 12.25C11.825 11.55 12 10.8 12 10C12 8.61667 11.5083 7.44167 10.525 6.475C9.55833 5.49167 8.38333 5 7 5C5.61667 5 4.43333 5.49167 3.45 6.475C2.48333 7.44167 2 8.61667 2 10C2 10.8 2.175 11.55 2.525 12.25C2.875 12.9333 3.36667 13.5167 4 14ZM3.4 19V17H10.6V19H3.4ZM7 22C6.45 22 5.975 21.8083 5.575 21.425C5.19167 21.025 5 20.55 5 20H9C9 20.55 8.8 21.025 8.4 21.425C8.01667 21.8083 7.55 22 7 22ZM17.5 9.025C17.5 7.775 17.0583 6.70833 16.175 5.825C15.2917 4.94167 14.225 4.5 12.975 4.5C14.225 4.5 15.2917 4.06667 16.175 3.2C17.0583 2.31667 17.5 1.25 17.5 -9.53674e-07C17.5 1.25 17.9333 2.31667 18.8 3.2C19.6833 4.06667 20.75 4.5 22 4.5C20.75 4.5 19.6833 4.94167 18.8 5.825C17.9333 6.70833 17.5 7.775 17.5 9.025Z" fill="inherit"/>
</svg>
